<svg width="198" height="55" viewBox="0 0 198 55" fill="none" xmlns="http://www.w3.org/2000/svg">
<path d="M59.152 8.18182H63.9886L70.4659 23.9915H70.7216L77.1989 8.18182H82.0355V30H78.2429V15.0107H78.0405L72.0107 29.9361H69.1768L63.147 14.9787H62.9446V30H59.152V8.18182ZM93.0818 30.3196C91.4838 30.3196 90.0989 29.968 88.927 29.2649C87.7551 28.5618 86.846 27.5781 86.1997 26.3139C85.5605 25.0497 85.2409 23.5724 85.2409 21.8821C85.2409 20.1918 85.5605 18.7109 86.1997 17.4396C86.846 16.1683 87.7551 15.1811 88.927 14.478C90.0989 13.7749 91.4838 13.4233 93.0818 13.4233C94.6798 13.4233 96.0648 13.7749 97.2366 14.478C98.4085 15.1811 99.3141 16.1683 99.9533 17.4396C100.6 18.7109 100.923 20.1918 100.923 21.8821C100.923 23.5724 100.6 25.0497 99.9533 26.3139C99.3141 27.5781 98.4085 28.5618 97.2366 29.2649C96.0648 29.968 94.6798 30.3196 93.0818 30.3196ZM93.1031 27.2301C93.9696 27.2301 94.694 26.9922 95.2764 26.5163C95.8588 26.0334 96.292 25.3871 96.5761 24.5774C96.8673 23.7678 97.0129 22.8658 97.0129 21.8714C97.0129 20.87 96.8673 19.9645 96.5761 19.1548C96.292 18.3381 95.8588 17.6882 95.2764 17.2053C94.694 16.7223 93.9696 16.4808 93.1031 16.4808C92.2153 16.4808 91.4767 16.7223 90.8872 17.2053C90.3048 17.6882 89.868 18.3381 89.5768 19.1548C89.2928 19.9645 89.1507 20.87 89.1507 21.8714C89.1507 22.8658 89.2928 23.7678 89.5768 24.5774C89.868 25.3871 90.3048 26.0334 90.8872 26.5163C91.4767 26.9922 92.2153 27.2301 93.1031 27.2301ZM110.043 30.2876C108.758 30.2876 107.607 29.9574 106.592 29.2969C105.576 28.6364 104.774 27.6776 104.184 26.4205C103.595 25.1634 103.3 23.6364 103.3 21.8395C103.3 20.0213 103.598 18.4872 104.195 17.2372C104.798 15.9801 105.612 15.032 106.634 14.3928C107.657 13.7464 108.797 13.4233 110.054 13.4233C111.013 13.4233 111.801 13.5866 112.419 13.9134C113.037 14.233 113.527 14.62 113.889 15.0746C114.252 15.522 114.532 15.9446 114.731 16.3423H114.891V8.18182H118.758V30H114.965V27.4219H114.731C114.532 27.8196 114.244 28.2422 113.868 28.6896C113.492 29.13 112.994 29.5064 112.377 29.8189C111.759 30.1314 110.981 30.2876 110.043 30.2876ZM111.119 27.1236C111.936 27.1236 112.632 26.9034 113.207 26.4631C113.783 26.0156 114.22 25.3942 114.518 24.5987C114.816 23.8033 114.965 22.8764 114.965 21.8182C114.965 20.7599 114.816 19.8402 114.518 19.0589C114.227 18.2777 113.793 17.6705 113.218 17.2372C112.65 16.804 111.95 16.5874 111.119 16.5874C110.26 16.5874 109.543 16.8111 108.967 17.2585C108.392 17.706 107.959 18.3239 107.668 19.1122C107.377 19.9006 107.231 20.8026 107.231 21.8182C107.231 22.8409 107.377 23.7536 107.668 24.5561C107.966 25.3516 108.403 25.9801 108.978 26.4418C109.56 26.8963 110.274 27.1236 111.119 27.1236Z" fill="#64748B"/>
<path d="M132.082 26.1818V48H128.566L118.286 33.1385H118.104V48H114.152V26.1818H117.689L127.959 41.054H128.151V26.1818H132.082ZM143.131 48.3196C141.533 48.3196 140.148 47.968 138.976 47.2649C137.804 46.5618 136.895 45.5781 136.249 44.3139C135.609 43.0497 135.29 41.5724 135.29 39.8821C135.29 38.1918 135.609 36.7109 136.249 35.4396C136.895 34.1683 137.804 33.1811 138.976 32.478C140.148 31.7749 141.533 31.4233 143.131 31.4233C144.729 31.4233 146.114 31.7749 147.285 32.478C148.457 33.1811 149.363 34.1683 150.002 35.4396C150.648 36.7109 150.972 38.1918 150.972 39.8821C150.972 41.5724 150.648 43.0497 150.002 44.3139C149.363 45.5781 148.457 46.5618 147.285 47.2649C146.114 47.968 144.729 48.3196 143.131 48.3196ZM143.152 45.2301C144.018 45.2301 144.743 44.9922 145.325 44.5163C145.908 44.0334 146.341 43.3871 146.625 42.5774C146.916 41.7678 147.062 40.8658 147.062 39.8714C147.062 38.87 146.916 37.9645 146.625 37.1548C146.341 36.3381 145.908 35.6882 145.325 35.2053C144.743 34.7223 144.018 34.4808 143.152 34.4808C142.264 34.4808 141.526 34.7223 140.936 35.2053C140.354 35.6882 139.917 36.3381 139.626 37.1548C139.342 37.9645 139.2 38.87 139.2 39.8714C139.2 40.8658 139.342 41.7678 139.626 42.5774C139.917 43.3871 140.354 44.0334 140.936 44.5163C141.526 44.9922 142.264 45.2301 143.152 45.2301ZM162.191 31.6364V34.6193H152.784V31.6364H162.191ZM155.106 27.7159H158.963V43.0781C158.963 43.5966 159.041 43.9943 159.197 44.2713C159.361 44.5412 159.574 44.7259 159.837 44.8253C160.099 44.9247 160.391 44.9744 160.71 44.9744C160.952 44.9744 161.172 44.9567 161.371 44.9212C161.577 44.8857 161.733 44.8537 161.839 44.8253L162.489 47.8402C162.283 47.9112 161.989 47.9893 161.605 48.0746C161.229 48.1598 160.767 48.2095 160.22 48.2237C159.254 48.2521 158.384 48.1065 157.61 47.7869C156.836 47.4602 156.222 46.956 155.767 46.2741C155.32 45.5923 155.099 44.7401 155.106 43.7173V27.7159ZM172.26 48.3196C170.619 48.3196 169.202 47.9787 168.009 47.2969C166.823 46.608 165.91 45.6349 165.271 44.3778C164.632 43.1136 164.312 41.6257 164.312 39.9141C164.312 38.2308 164.632 36.7536 165.271 35.4822C165.918 34.2038 166.819 33.2095 167.977 32.4993C169.135 31.782 170.495 31.4233 172.057 31.4233C173.066 31.4233 174.018 31.5866 174.913 31.9134C175.815 32.233 176.61 32.7301 177.299 33.4048C177.995 34.0795 178.542 34.9389 178.94 35.983C179.337 37.0199 179.536 38.2557 179.536 39.6903V40.8729H166.123V38.2734H175.839C175.832 37.5348 175.672 36.8778 175.36 36.3026C175.047 35.7202 174.611 35.2621 174.05 34.9283C173.496 34.5945 172.849 34.4276 172.111 34.4276C171.322 34.4276 170.63 34.6193 170.033 35.0028C169.437 35.3793 168.971 35.8764 168.638 36.4943C168.311 37.1051 168.144 37.7763 168.137 38.5078V40.777C168.137 41.7287 168.311 42.5455 168.659 43.2273C169.007 43.902 169.494 44.4205 170.119 44.7827C170.744 45.1378 171.475 45.3153 172.313 45.3153C172.874 45.3153 173.382 45.2372 173.837 45.081C174.291 44.9176 174.685 44.6797 175.019 44.3672C175.353 44.0547 175.605 43.6676 175.775 43.206L179.376 43.6108C179.149 44.5625 178.716 45.3935 178.077 46.1037C177.444 46.8068 176.635 47.3537 175.648 47.7443C174.66 48.1278 173.531 48.3196 172.26 48.3196ZM195.507 35.9616L191.991 36.3452C191.892 35.9901 191.718 35.6562 191.469 35.3438C191.228 35.0312 190.901 34.7791 190.489 34.5874C190.077 34.3956 189.573 34.2997 188.976 34.2997C188.174 34.2997 187.499 34.4737 186.952 34.8217C186.412 35.1697 186.146 35.6207 186.153 36.1747C186.146 36.6506 186.32 37.0376 186.675 37.3359C187.037 37.6342 187.634 37.8793 188.465 38.071L191.256 38.6676C192.805 39.0014 193.955 39.5305 194.708 40.255C195.468 40.9794 195.851 41.9276 195.859 43.0994C195.851 44.1293 195.55 45.0384 194.953 45.8267C194.363 46.608 193.543 47.2187 192.492 47.6591C191.441 48.0994 190.234 48.3196 188.87 48.3196C186.867 48.3196 185.255 47.9006 184.033 47.0625C182.812 46.2173 182.084 45.0419 181.849 43.5362L185.61 43.174C185.78 43.9126 186.143 44.4702 186.697 44.8466C187.251 45.223 187.971 45.4112 188.859 45.4112C189.775 45.4112 190.511 45.223 191.064 44.8466C191.626 44.4702 191.906 44.005 191.906 43.451C191.906 42.9822 191.725 42.5952 191.363 42.2898C191.008 41.9844 190.454 41.75 189.701 41.5866L186.91 41.0007C185.34 40.674 184.179 40.1236 183.426 39.3494C182.673 38.5682 182.3 37.581 182.307 36.3878C182.3 35.3793 182.574 34.5057 183.128 33.767C183.689 33.0213 184.466 32.446 185.461 32.0412C186.462 31.6293 187.616 31.4233 188.923 31.4233C190.841 31.4233 192.35 31.8317 193.451 32.6484C194.559 33.4652 195.244 34.5696 195.507 35.9616Z" fill="#64748B"/>
<path fill-rule="evenodd" clip-rule="evenodd" d="M0 55C26.1253 31.3214 28.1899 30.5715 41.4175 39.9642C31.6833 27.1932 32.4604 25.2086 57 0C30.8747 23.6786 28.8101 24.4285 15.5826 15.0358C25.3168 27.8068 24.5396 29.7914 0 55Z" fill="url(#paint0_linear_7166_299)"/>
<defs>
<linearGradient id="paint0_linear_7166_299" x1="163.77" y1="28.9657" x2="-132.131" y2="25.5244" gradientUnits="userSpaceOnUse">
<stop stop-color="#DDF6A2"/>
<stop offset="1" stop-color="#859398"/>
</linearGradient>
</defs>
</svg>
